<svg
  width="300"
  height="300"
  viewBox="0 0 300 300"
  xmlns="http://www.w3.org/2000/svg"
>
  <!-- Face shape -->
  <circle cx="150" cy="130" r="70" fill="#f2d6cb" />

  <!-- Hair on top (dark) -->
  <path
    d="M80,70 Q150,10 220,70 L220,90 Q150,40 80,90 Z"
    fill="#2f2f2f"
  />

  <!-- Beard around chin -->
  <path
    d="M95,160 Q150,240 205,160
       Q185,190 150,200
       Q115,190 95,160 Z"
    fill="#2f2f2f"
  />

  <!-- Thick eyebrows -->
  <path
    d="M95,100 Q115,90 135,100"
    stroke="#2f2f2f"
    stroke-width="6"
    fill="none"
    stroke-linecap="round"
  />
  <path
    d="M165,100 Q185,90 205,100"
    stroke="#2f2f2f"
    stroke-width="6"
    fill="none"
    stroke-linecap="round"
  />

  <!-- Eyes (white sclera + black pupil) -->
  <circle cx="115" cy="115" r="10" fill="#ffffff" />
  <circle cx="115" cy="115" r="4" fill="#000000" />
  <circle cx="185" cy="115" r="10" fill="#ffffff" />
  <circle cx="185" cy="115" r="4" fill="#000000" />

  <!-- Nose -->
  <path
    d="M150,120 Q140,140 150,140"
    stroke="#d8b3a9"
    stroke-width="3"
    fill="none"
  />

  <!-- Smile -->
  <path
    d="M110,150 Q150,180 190,150"
    stroke="#000000"
    stroke-width="4"
    fill="none"
    stroke-linecap="round"
  />

  <!-- Body / Shirt -->
  <path
    d="M80,200 Q150,220 220,200
       L220,300 L80,300 Z"
    fill="#333333"
  />

  <!-- Right arm with thumbs up -->
  <!-- Positioned to the right side, raised up for a thumbs-up pose -->
  <g transform="translate(205,180) rotate(-15) scale(0.8)">
    <!-- Upper arm -->
    <rect x="0" y="0" width="15" height="40" rx="5" fill="#333333" />
    <!-- Lower arm (bent) -->
    <g transform="translate(0,40) rotate(-30, 5, 0)">
      <rect x="0" y="0" width="15" height="35" rx="5" fill="#f2d6cb" />
    </g>
    <!-- Thumb (simple shape) -->
    <path
      d="M-5,30 C-5,20 10,20 10,30
         L10,45 C5,45 -5,45 -5,30 Z"
      fill="#f2d6cb"
      transform="translate(0,15)"
    />
    <!-- Fingers (folded) -->
    <rect x="-5" y="50" width="15" height="10" rx="5" fill="#f2d6cb" />
  </g>
</svg>
